# xmcd
#
# Track frame offsets:
#	150
#	16693
#	38647
#	52872
#	69311
#	103784
#	118120
#	130472
#	158716
#	181055
#	193755
#	212695
#	232072
#	251173
#	270549
#
# Disc length: 3728 seconds
#
# Revision: 0
# Processed by: cddbd v1.5.2PL0 Copyright (c) Steve Scherf et al.
# Submitted via: dBpowerAMP V4.0
#
DISCID=cc0e8e0f
DTITLE=Martin Stephenson - Hell's Half Acre
DYEAR=1900
DGENRE=
TTITLE0=Salutation Road
TTITLE1=Big Sky New Light
TTITLE2=Hell's Half Acre
TTITLE3=Sleepwalk
TTITLE4=Lilac Tree
TTITLE5=Nairn Beach
TTITLE6=I Shall Not Be Moved
TTITLE7=In The Hell Of The Night
TTITLE8=Steel Strings
TTITLE9=Blind Man Blues
TTITLE10=Texas Law And Justice
TTITLE11=Rain
TTITLE12=Soloman
TTITLE13=Time With Jesus
TTITLE14=You Become The Wind and I Become The Mountain
EXTD=Malcolm White\n
EXTT0=
EXTT1=
EXTT2=
EXTT3=
EXTT4=
EXTT5=
EXTT6=
EXTT7=
EXTT8=
EXTT9=
EXTT10=
EXTT11=
EXTT12=
EXTT13=
EXTT14=
PLAYORDER=
